<?xml version="1.0" standalone="no"?>
<svg viewBox="0 0 200 200" xmlns="http://www.w3.org/2000/svg">
  <path fill="#FF0066" d="M32.6,-54.8C41.6,-44.9,47.9,-34.8,58,-23.4C68.1,-11.9,81.9,0.9,83.4,14.2C84.9,27.4,74,41,62.6,54.4C51.2,67.7,39.4,80.8,27.1,77.7C14.8,74.6,2.1,55.4,-13,48.9C-28.2,42.4,-45.7,48.6,-51.3,43.6C-56.9,38.6,-50.5,22.5,-50.5,8.6C-50.4,-5.4,-56.7,-17.1,-56.2,-28.8C-55.7,-40.6,-48.5,-52.4,-38,-61.6C-27.5,-70.9,-13.8,-77.5,-1,-76C11.8,-74.5,23.5,-64.7,32.6,-54.8Z" transform="translate(100 100)" />
</svg>
